<svg id="visual" viewBox="0 0 900 600" width="900" height="600" xmlns="http://www.w3.org/2000/svg" xmlns:xlink="http://www.w3.org/1999/xlink" version="1.1"><path d="M0 334L21.5 323.8C43 313.7 86 293.3 128.8 292.7C171.7 292 214.3 311 257.2 323.3C300 335.7 343 341.3 385.8 329.5C428.7 317.7 471.3 288.3 514.2 278.5C557 268.7 600 278.3 642.8 274.3C685.7 270.3 728.3 252.7 771.2 249.5C814 246.3 857 257.7 878.5 263.3L900 269L900 0L878.5 0C857 0 814 0 771.2 0C728.3 0 685.7 0 642.8 0C600 0 557 0 514.2 0C471.3 0 428.7 0 385.8 0C343 0 300 0 257.2 0C214.3 0 171.7 0 128.8 0C86 0 43 0 21.5 0L0 0Z" fill="#e1def6"></path><path d="M0 224L21.5 220.8C43 217.7 86 211.3 128.8 205.8C171.7 200.3 214.3 195.7 257.2 187.3C300 179 343 167 385.8 164.7C428.7 162.3 471.3 169.7 514.2 182.7C557 195.7 600 214.3 642.8 216.5C685.7 218.7 728.3 204.3 771.2 204.3C814 204.3 857 218.7 878.5 225.8L900 233L900 0L878.5 0C857 0 814 0 771.2 0C728.3 0 685.7 0 642.8 0C600 0 557 0 514.2 0C471.3 0 428.7 0 385.8 0C343 0 300 0 257.2 0C214.3 0 171.7 0 128.8 0C86 0 43 0 21.5 0L0 0Z" fill="#bfadf4"></path><path d="M0 95L21.5 104.2C43 113.3 86 131.7 128.8 138.7C171.7 145.7 214.3 141.3 257.2 143.7C300 146 343 155 385.8 152.7C428.7 150.3 471.3 136.7 514.2 131.7C557 126.7 600 130.3 642.8 124.2C685.7 118 728.3 102 771.2 102C814 102 857 118 878.5 126L900 134L900 0L878.5 0C857 0 814 0 771.2 0C728.3 0 685.7 0 642.8 0C600 0 557 0 514.2 0C471.3 0 428.7 0 385.8 0C343 0 300 0 257.2 0C214.3 0 171.7 0 128.8 0C86 0 43 0 21.5 0L0 0Z" fill="#a679eb"></path></svg>