<svg id="visual" viewBox="0 0 900 600" width="900" height="600" xmlns="http://www.w3.org/2000/svg" xmlns:xlink="http://www.w3.org/1999/xlink" version="1.1"><path d="M0 163L21.5 180.5C43 198 86 233 128.8 244.2C171.7 255.3 214.3 242.7 257.2 248.2C300 253.7 343 277.3 385.8 270.5C428.7 263.7 471.3 226.3 514.2 223.7C557 221 600 253 642.8 248.3C685.7 243.7 728.3 202.3 771.2 201.8C814 201.3 857 241.7 878.5 261.8L900 282L900 601L878.5 601C857 601 814 601 771.2 601C728.3 601 685.7 601 642.8 601C600 601 557 601 514.2 601C471.3 601 428.7 601 385.8 601C343 601 300 601 257.2 601C214.3 601 171.7 601 128.8 601C86 601 43 601 21.5 601L0 601Z" fill="#e1def6"></path><path d="M0 259L21.5 259.7C43 260.3 86 261.7 128.8 276C171.7 290.3 214.3 317.7 257.2 328.7C300 339.7 343 334.3 385.8 326.2C428.7 318 471.3 307 514.2 311.3C557 315.7 600 335.3 642.8 336.7C685.7 338 728.3 321 771.2 303.5C814 286 857 268 878.5 259L900 250L900 601L878.5 601C857 601 814 601 771.2 601C728.3 601 685.7 601 642.8 601C600 601 557 601 514.2 601C471.3 601 428.7 601 385.8 601C343 601 300 601 257.2 601C214.3 601 171.7 601 128.8 601C86 601 43 601 21.5 601L0 601Z" fill="#cfc6f6"></path><path d="M0 329L21.5 340.3C43 351.7 86 374.3 128.8 376.7C171.7 379 214.3 361 257.2 351.8C300 342.7 343 342.3 385.8 338.7C428.7 335 471.3 328 514.2 331.2C557 334.3 600 347.7 642.8 366.7C685.7 385.7 728.3 410.3 771.2 406.2C814 402 857 369 878.5 352.5L900 336L900 601L878.5 601C857 601 814 601 771.2 601C728.3 601 685.7 601 642.8 601C600 601 557 601 514.2 601C471.3 601 428.7 601 385.8 601C343 601 300 601 257.2 601C214.3 601 171.7 601 128.8 601C86 601 43 601 21.5 601L0 601Z" fill="#bfadf4"></path><path d="M0 389L21.5 406.7C43 424.3 86 459.7 128.8 471.2C171.7 482.7 214.3 470.3 257.2 460C300 449.7 343 441.3 385.8 440C428.7 438.7 471.3 444.3 514.2 445.8C557 447.3 600 444.7 642.8 439.5C685.7 434.3 728.3 426.7 771.2 426.8C814 427 857 435 878.5 439L900 443L900 601L878.5 601C857 601 814 601 771.2 601C728.3 601 685.7 601 642.8 601C600 601 557 601 514.2 601C471.3 601 428.7 601 385.8 601C343 601 300 601 257.2 601C214.3 601 171.7 601 128.8 601C86 601 43 601 21.5 601L0 601Z" fill="#b194f0"></path><path d="M0 552L21.5 550.5C43 549 86 546 128.8 543C171.7 540 214.3 537 257.2 525.7C300 514.3 343 494.7 385.8 485.3C428.7 476 471.3 477 514.2 479.3C557 481.7 600 485.3 642.8 495C685.7 504.7 728.3 520.3 771.2 520.5C814 520.7 857 505.3 878.5 497.7L900 490L900 601L878.5 601C857 601 814 601 771.2 601C728.3 601 685.7 601 642.8 601C600 601 557 601 514.2 601C471.3 601 428.7 601 385.8 601C343 601 300 601 257.2 601C214.3 601 171.7 601 128.8 601C86 601 43 601 21.5 601L0 601Z" fill="#a679eb"></path></svg>