<svg id="visual" viewBox="0 0 450 900" width="450" height="900" xmlns="http://www.w3.org/2000/svg" xmlns:xlink="http://www.w3.org/1999/xlink" version="1.1"><path d="M0 552L18.8 546.3C37.7 540.7 75.3 529.3 112.8 529.7C150.3 530 187.7 542 225.2 551.3C262.7 560.7 300.3 567.3 337.8 548C375.3 528.7 412.7 483.3 431.3 460.7L450 438L450 0L431.3 0C412.7 0 375.3 0 337.8 0C300.3 0 262.7 0 225.2 0C187.7 0 150.3 0 112.8 0C75.3 0 37.7 0 18.8 0L0 0Z" fill="#e1def6"></path><path d="M0 308L18.8 328.5C37.7 349 75.3 390 112.8 415.2C150.3 440.3 187.7 449.7 225.2 442C262.7 434.3 300.3 409.7 337.8 396C375.3 382.3 412.7 379.7 431.3 378.3L450 377L450 0L431.3 0C412.7 0 375.3 0 337.8 0C300.3 0 262.7 0 225.2 0C187.7 0 150.3 0 112.8 0C75.3 0 37.7 0 18.8 0L0 0Z" fill="#cfc6f6"></path><path d="M0 313L18.8 307.7C37.7 302.3 75.3 291.7 112.8 293.3C150.3 295 187.7 309 225.2 302C262.7 295 300.3 267 337.8 256.5C375.3 246 412.7 253 431.3 256.5L450 260L450 0L431.3 0C412.7 0 375.3 0 337.8 0C300.3 0 262.7 0 225.2 0C187.7 0 150.3 0 112.8 0C75.3 0 37.7 0 18.8 0L0 0Z" fill="#bfadf4"></path><path d="M0 235L18.8 229.7C37.7 224.3 75.3 213.7 112.8 199.8C150.3 186 187.7 169 225.2 172.8C262.7 176.7 300.3 201.3 337.8 214C375.3 226.7 412.7 227.3 431.3 227.7L450 228L450 0L431.3 0C412.7 0 375.3 0 337.8 0C300.3 0 262.7 0 225.2 0C187.7 0 150.3 0 112.8 0C75.3 0 37.7 0 18.8 0L0 0Z" fill="#b194f0"></path><path d="M0 126L18.8 122.3C37.7 118.7 75.3 111.3 112.8 114.2C150.3 117 187.7 130 225.2 126.7C262.7 123.3 300.3 103.7 337.8 92.2C375.3 80.7 412.7 77.3 431.3 75.7L450 74L450 0L431.3 0C412.7 0 375.3 0 337.8 0C300.3 0 262.7 0 225.2 0C187.7 0 150.3 0 112.8 0C75.3 0 37.7 0 18.8 0L0 0Z" fill="#a679eb"></path></svg>